<?xml version="1.0" standalone="no"?><!DOCTYPE svg PUBLIC "-//W3C//DTD SVG 1.1//EN" "http://www.w3.org/Graphics/SVG/1.1/DTD/svg11.dtd"><svg t="1523501813487" class="icon" style="" viewBox="0 0 1024 1024" version="1.1" xmlns="http://www.w3.org/2000/svg" p-id="2017" xmlns:xlink="http://www.w3.org/1999/xlink" width="200" height="200"><defs><style type="text/css"></style></defs><path d="M782.355963 254.832919c0-27.616988-22.39301-50.008974-50.009997-50.008974l-100.015901 0 0 25.00551c0 13.808494-11.207249 25.003464-25.006534 25.003464-13.794168 0-25.006534-11.19497-25.006534-25.003464l0-25.00551L332.278267 204.823945l0 25.00551c0 13.808494-11.209296 25.003464-25.004487 25.003464-13.796214 0-25.00551-11.19497-25.00551-25.003464l0-25.00551-100.017948 0c-27.615964 0-50.007951 22.390963-50.007951 50.008974l0 50.007951 650.113591 0L782.355963 254.832919zM782.355963 466.961224 782.355963 354.849844 132.242372 354.849844l0 450.076672c0 27.618011 22.391986 50.009997 50.007951 50.009997l422.200788 0L659.595035 904.94344 182.251346 904.94344c-55.232952 0-100.015901-44.780903-100.015901-100.016925L82.235444 254.832919c0-55.234999 44.783972-100.016925 100.015901-100.016925l100.017948 0 0-25.004487c0-13.808494 11.208273-25.004487 25.00551-25.004487 13.795191 0 25.004487 11.19497 25.004487 25.004487l0 25.004487 250.03873 0 0-25.004487c0-13.808494 11.211343-25.004487 25.006534-25.004487 13.798261 0 25.006534 11.19497 25.006534 25.004487l0 25.004487 100.015901 0c55.233975 0 100.017948 44.781926 100.017948 100.016925l0 231.29483L782.355963 466.961224z" p-id="2018"></path><path d="M485.466182 228.633211c0 13.45443-10.906397 24.361851-24.363897 24.361851l0 0c-13.452383 0-24.359804-10.907421-24.359804-24.361851l0-100.56951c0-13.45443 10.907421-24.361851 24.359804-24.361851l0 0c13.4575 0 24.363897 10.907421 24.363897 24.361851L485.466182 228.633211z" p-id="2019"></path><path d="M282.196639 533.654182c-27.360138 0-49.620118-22.25998-49.620118-49.619094 0-27.361161 22.25998-49.621141 49.620118-49.621141 27.361161 0 49.620118 22.25998 49.620118 49.621141C331.815733 511.394203 309.556777 533.654182 282.196639 533.654182zM282.196639 454.589452c-16.235776 0-29.445636 13.20986-29.445636 29.445636 0 16.235776 13.20986 29.444613 29.445636 29.444613s29.445636-13.20986 29.445636-29.444613C311.641251 467.798289 298.432415 454.589452 282.196639 454.589452z" p-id="2020"></path><path d="M456.14232 533.654182c-27.360138 0-49.620118-22.25998-49.620118-49.619094 0-27.361161 22.25998-49.621141 49.620118-49.621141 27.361161 0 49.620118 22.25998 49.620118 49.621141C505.762437 511.394203 483.503481 533.654182 456.14232 533.654182zM456.14232 454.589452c-16.235776 0-29.445636 13.20986-29.445636 29.445636 0 16.235776 13.20986 29.444613 29.445636 29.444613s29.445636-13.20986 29.445636-29.444613C485.587955 467.798289 472.379119 454.589452 456.14232 454.589452z" p-id="2021"></path><path d="M282.196639 712.388936c-27.360138 0-49.620118-22.258956-49.620118-49.619094s22.25998-49.620118 49.620118-49.620118c27.361161 0 49.620118 22.25998 49.620118 49.620118S309.556777 712.388936 282.196639 712.388936zM282.196639 633.324206c-16.235776 0-29.445636 13.210883-29.445636 29.445636 0 16.235776 13.20986 29.444613 29.445636 29.444613s29.445636-13.208836 29.445636-29.444613C311.641251 646.535089 298.432415 633.324206 282.196639 633.324206z" p-id="2022"></path><path d="M456.14232 712.388936c-27.360138 0-49.620118-22.258956-49.620118-49.619094s22.25998-49.620118 49.620118-49.620118c27.361161 0 49.620118 22.25998 49.620118 49.620118S483.503481 712.388936 456.14232 712.388936zM456.14232 633.324206c-16.235776 0-29.445636 13.210883-29.445636 29.445636 0 16.235776 13.20986 29.444613 29.445636 29.444613s29.445636-13.208836 29.445636-29.444613C485.587955 646.535089 472.379119 633.324206 456.14232 633.324206z" p-id="2023"></path><path d="M701.206758 911.502833c-63.662949 0-123.517151-24.791639-168.535461-69.809949-45.017286-45.016263-69.809949-104.872512-69.809949-168.535461 0-63.664995 24.792663-123.518175 69.809949-168.535461 45.01831-45.01831 104.872512-69.809949 168.535461-69.809949s123.517151 24.791639 168.534438 69.809949c45.01831 45.017286 69.810972 104.870466 69.810972 168.535461 0 63.662949-24.792663 123.519198-69.810972 168.535461C824.723909 886.712217 764.869706 911.502833 701.206758 911.502833zM701.206758 476.212936c-108.5953 0-196.944488 88.350211-196.944488 196.944488s88.349187 196.943464 196.944488 196.943464c108.596324 0 196.945511-88.349187 196.945511-196.943464S809.803082 476.212936 701.206758 476.212936z" p-id="2024"></path><path d="M700.696128 655.113465c-4.631484 0-7.995091-6.581905-7.995091-15.645328L692.701037 532.630876c0-9.064446 3.363607-15.641235 7.995091-15.641235 4.635577 0 8.001231 6.576789 8.001231 15.641235l0 106.836237C708.698382 648.53156 705.332728 655.113465 700.696128 655.113465z" p-id="2025"></path><path d="M668.627758 680.359452 542.511409 680.359452c-8.565073 0-14.545274-3.183506-14.545274-7.742335s5.980201-7.742335 14.545274-7.742335l126.116349 0c8.562003 0 14.545274 3.183506 14.545274 7.742335S677.190785 680.359452 668.627758 680.359452z" p-id="2026"></path><path d="M701.208804 699.032744c-14.267958 0-25.876344-11.608386-25.876344-25.874297 0-14.266935 11.608386-25.875321 25.876344-25.875321 14.265912 0 25.872251 11.608386 25.872251 25.875321C727.081055 687.424358 715.475739 699.032744 701.208804 699.032744zM701.208804 657.369855c-8.708336 0-15.789615 7.082302-15.789615 15.788591 0 8.704243 7.081279 15.785521 15.789615 15.785521 8.704243 0 15.786545-7.081279 15.786545-15.785521C716.995349 664.452157 709.913047 657.369855 701.208804 657.369855z" p-id="2027"></path></svg>