<?xml version="1.0" standalone="no"?><!DOCTYPE svg PUBLIC "-//W3C//DTD SVG 1.1//EN" "http://www.w3.org/Graphics/SVG/1.1/DTD/svg11.dtd"><svg t="1520390993795" class="icon" style="" viewBox="0 0 1024 1024" version="1.1" xmlns="http://www.w3.org/2000/svg" p-id="1599" xmlns:xlink="http://www.w3.org/1999/xlink" width="200" height="200"><defs><style type="text/css"></style></defs><path d="M512 64C300.8 64 128 236.8 128 448c0 115.2 51.2 217.6 128 288L256 960l230.4-115.2c19.2-6.4 38.4-6.4 57.6 0L768 960l0-224c76.8-70.4 128-172.8 128-288C896 236.8 723.2 64 512 64zM512 704c-140.8 0-256-115.2-256-256 0-140.8 115.2-256 256-256s256 115.2 256 256C768 588.8 652.8 704 512 704zM512 384c38.4 0 64 25.6 64 64S550.4 512 512 512 448 486.4 448 448 473.6 384 512 384M512 256C403.2 256 320 345.6 320 448s83.2 192 192 192 192-83.2 192-192S620.8 256 512 256L512 256z" p-id="1600"></path></svg>