<?xml version="1.0" standalone="no"?><!DOCTYPE svg PUBLIC "-//W3C//DTD SVG 1.1//EN" "http://www.w3.org/Graphics/SVG/1.1/DTD/svg11.dtd"><svg t="1520321253444" class="icon" style="" viewBox="0 0 1024 1024" version="1.1" xmlns="http://www.w3.org/2000/svg" p-id="1829" xmlns:xlink="http://www.w3.org/1999/xlink" width="400" height="400"><defs><style type="text/css"></style></defs><path d="M555.583 510.01l81.246-81.245L918.184 710.12l-81.245 81.246z" fill="#455A64" p-id="1830"></path><path d="M975.9 795.8L922.7 849c-14.4 14.4-37.8 14.4-52.2 0L669.2 647.8c-14.4-14.4-14.4-37.8 0-52.2l53.2-53.2c14.4-14.4 37.8-14.4 52.2 0l201.2 201.2c14.5 14.4 14.5 37.8 0.1 52.2zM314.513 398.916l211.353-211.353 177.058 177.058L491.57 575.973z" fill="#CFD8DC" p-id="1831"></path><path d="M702.9 364.7l-37.1-37.2-299.1 123.6L491.5 576z" fill="#B0BEC5" p-id="1832"></path><path d="M495.5 632.6l-35.3 35.3c-14.4 14.4-37.8 14.4-52.2 0L222.7 482.5c-14.4-14.4-14.4-37.8 0-52.2L258 395c14.4-14.4 37.8-14.4 52.2 0l185.3 185.3c14.4 14.5 14.4 37.9 0 52.3zM794.7 333.3l-35.3 35.3c-14.4 14.4-37.8 14.4-52.2 0L521.9 183.3c-14.4-14.4-14.4-37.8 0-52.2l35.3-35.3c14.4-14.4 37.8-14.4 52.2 0l185.3 185.3c14.5 14.4 14.5 37.8 0 52.2z" fill="#546E7A" p-id="1833"></path><path d="M759.5 368.6l35.3-35.3c14.4-14.4 14.4-37.8 0-52.2l-56.6-56.6-123.9 51.2 93 93c14.3 14.3 37.7 14.3 52.2-0.1z" fill="#455A64" p-id="1834"></path><path d="M460.2 667.9l35.3-35.3c14.4-14.4 14.4-37.8 0-52.2l-56.6-56.6L315 574.9l93 93c14.4 14.4 37.8 14.4 52.2 0z" fill="#455A64" p-id="1835"></path><path d="M512.2 871H92.1v-23.6c0-20.4 16.5-36.9 36.9-36.9h346.2c20.4 0 36.9 16.5 36.9 36.9V871z" fill="#FFCA28" p-id="1836"></path><path d="M532.9 939.1H71.3c-18.8 0-34.1-15.2-34.1-34.1 0-18.8 15.2-34.1 34.1-34.1h461.6c18.8 0 34.1 15.2 34.1 34.1 0 18.8-15.3 34.1-34.1 34.1z" fill="#FFB300" p-id="1837"></path></svg>